# xmcd
#
# Track frame offsets:
#	150
#	13437
#	24222
#	37212
#	53900
#	73420
#	92155
#	109727
#	127662
#	145020
#	165725
#	186862
#	203982
#	224727
#	245367
#
# Disc length: 3527 seconds
#
# Revision: 1
# Processed by: cddbd v1.5.1PL2 Copyright (c) Steve Scherf et al.
# Submitted via: EasyCDDAExtractor 5.0.7
#
DISCID=e10dc50f
DTITLE=Bruno e Marrone - Sonhos, Amores e Sucessos - I
DYEAR=2006
DGENRE=Sertanejo
TTITLE0=Olha o Trem Querendo
TTITLE1=Sem Vergonha
TTITLE2=Tá na Hora
TTITLE3=Vida Vazia
TTITLE4=Cilada de Amor
TTITLE5=Agarrada em Mim
TTITLE6=Dor e Saudade
TTITLE7=Mais uma Vez
TTITLE8=Bar Solidão
TTITLE9=Depois da Ressaca
TTITLE10=Passou da Conta
TTITLE11=Paixão Demais
TTITLE12=Medo
TTITLE13=Por um Minuto
TTITLE14=Meu Jeito de Sentir
EXTD=
EXTT0=
EXTT1=
EXTT2=
EXTT3=
EXTT4=
EXTT5=
EXTT6=
EXTT7=
EXTT8=
EXTT9=
EXTT10=
EXTT11=
EXTT12=
EXTT13=
EXTT14=
PLAYORDER=
